<svg xmlns="http://www.w3.org/2000/svg" xmlns:xlink="http://www.w3.org/1999/xlink" width="500" zoomAndPan="magnify" viewBox="0 0 375 374.999991" height="500" preserveAspectRatio="xMidYMid meet" version="1.2"><defs><clipPath id="9ed4078b34"><path d="M 23 17.285156 L 347 17.285156 L 347 170 L 23 170 Z M 23 17.285156 "/></clipPath><clipPath id="acf8ab3a51"><path d="M 13.261719 178 L 357.511719 178 L 357.511719 360.035156 L 13.261719 360.035156 Z M 13.261719 178 "/></clipPath></defs><g id="3a74b2d1a5"><g clip-rule="nonzero" clip-path="url(#9ed4078b34)"><path style=" stroke:none;fill-rule:nonzero;fill:#000000;fill-opacity:1;" d="M 29.996094 169.503906 C 33.378906 169.503906 36.121094 166.769531 36.121094 163.390625 L 36.121094 158.652344 C 36.121094 133.726562 51.96875 111.527344 75.558594 103.414062 C 75.902344 103.296875 76.230469 103.148438 76.539062 102.980469 C 82.070312 105.804688 88.230469 107.304688 94.621094 107.304688 C 100.964844 107.304688 107.078125 105.832031 112.574219 103.046875 C 117.597656 104.664062 122.367188 106.949219 126.792969 109.863281 C 115.773438 123.175781 109.339844 140.167969 109.339844 158.265625 C 109.339844 161.640625 112.082031 164.378906 115.464844 164.378906 C 118.84375 164.378906 121.585938 161.640625 121.585938 158.265625 C 121.585938 131.082031 138.871094 106.871094 164.597656 98.023438 C 165.03125 97.875 165.433594 97.683594 165.808594 97.453125 C 171.78125 100.558594 178.457031 102.203125 185.386719 102.203125 C 192.238281 102.203125 198.839844 100.59375 204.765625 97.558594 C 210.667969 99.433594 216.257812 102.15625 221.398438 105.671875 C 226.996094 109.503906 231.933594 114.175781 236.066406 119.5625 C 240.242188 125 243.488281 131.027344 245.714844 137.472656 C 248.023438 144.140625 249.191406 151.136719 249.191406 158.265625 L 249.191406 163.390625 C 249.191406 166.769531 251.929688 169.503906 255.3125 169.503906 C 258.695312 169.503906 261.433594 166.769531 261.433594 163.390625 L 261.433594 158.265625 C 261.433594 149.777344 260.039062 141.441406 257.289062 133.484375 C 254.632812 125.792969 250.761719 118.609375 245.785156 112.125 C 245.195312 111.359375 244.59375 110.605469 243.980469 109.867188 C 248.402344 106.949219 253.164062 104.667969 258.203125 103.050781 C 263.699219 105.832031 269.8125 107.304688 276.152344 107.304688 C 282.546875 107.304688 288.707031 105.804688 294.238281 102.980469 C 294.546875 103.148438 294.875 103.296875 295.21875 103.414062 C 318.808594 111.527344 334.65625 133.726562 334.65625 158.652344 L 334.65625 163.390625 C 334.65625 166.769531 337.398438 169.503906 340.777344 169.503906 C 344.160156 169.503906 346.902344 166.769531 346.902344 163.390625 L 346.902344 158.652344 C 346.902344 130.792969 330.523438 105.753906 305.515625 94.371094 C 312.238281 87.039062 315.917969 77.605469 315.917969 67.601562 C 315.917969 56.996094 311.78125 47.027344 304.273438 39.527344 C 296.761719 32.027344 286.777344 27.898438 276.152344 27.898438 C 265.53125 27.898438 255.546875 32.03125 248.035156 39.527344 C 240.523438 47.027344 236.386719 56.996094 236.386719 67.601562 C 236.386719 77.605469 240.070312 87.042969 246.792969 94.375 C 242.777344 96.203125 238.9375 98.410156 235.304688 100.980469 C 233.085938 99.054688 230.753906 97.253906 228.316406 95.585938 C 224.511719 92.984375 220.496094 90.742188 216.316406 88.882812 C 223.804688 80.972656 227.914062 70.675781 227.914062 59.746094 C 227.914062 48.40625 223.492188 37.746094 215.457031 29.726562 C 207.425781 21.707031 196.746094 17.289062 185.390625 17.289062 C 174.03125 17.289062 163.351562 21.707031 155.320312 29.726562 C 147.289062 37.746094 142.863281 48.40625 142.863281 59.746094 C 142.863281 70.675781 146.976562 80.972656 154.464844 88.882812 C 147.4375 92.003906 141.035156 96.121094 135.398438 101.03125 C 135.144531 100.78125 134.867188 100.550781 134.5625 100.339844 C 131.199219 98.042969 127.664062 96.050781 123.984375 94.375 C 130.707031 87.042969 134.390625 77.601562 134.390625 67.597656 C 134.390625 56.996094 130.253906 47.023438 122.742188 39.527344 C 115.230469 32.027344 105.246094 27.898438 94.625 27.898438 C 84.003906 27.898438 74.015625 32.027344 66.503906 39.527344 C 58.992188 47.027344 54.855469 56.996094 54.855469 67.601562 C 54.855469 77.605469 58.539062 87.042969 65.257812 94.375 C 40.25 105.753906 23.875 130.792969 23.875 158.652344 L 23.875 163.394531 C 23.875 166.765625 26.617188 169.503906 29.996094 169.503906 Z M 276.152344 40.125 C 291.328125 40.125 303.675781 52.449219 303.675781 67.601562 C 303.675781 82.75 291.328125 95.074219 276.152344 95.074219 C 260.980469 95.074219 248.632812 82.75 248.632812 67.601562 C 248.632812 52.449219 260.980469 40.125 276.152344 40.125 Z M 185.386719 29.515625 C 202.085938 29.515625 215.667969 43.078125 215.667969 59.746094 C 215.667969 76.414062 202.085938 89.976562 185.386719 89.976562 C 168.691406 89.976562 155.109375 76.414062 155.109375 59.746094 C 155.109375 43.078125 168.691406 29.515625 185.386719 29.515625 Z M 94.621094 40.125 C 109.796875 40.125 122.144531 52.449219 122.144531 67.601562 C 122.144531 82.75 109.796875 95.074219 94.621094 95.074219 C 79.449219 95.074219 67.101562 82.75 67.101562 67.601562 C 67.101562 52.449219 79.449219 40.125 94.621094 40.125 Z M 94.621094 40.125 "/></g><g clip-rule="nonzero" clip-path="url(#acf8ab3a51)"><path style=" stroke:none;fill-rule:nonzero;fill:#000000;fill-opacity:1;" d="M 351.378906 178.550781 L 19.398438 178.550781 C 16.019531 178.550781 13.277344 181.285156 13.277344 184.660156 C 13.277344 188.039062 16.019531 190.773438 19.398438 190.773438 L 33.488281 190.773438 L 32.328125 198.816406 C 31.9375 201.550781 33.425781 204.207031 35.964844 205.300781 L 62.878906 216.890625 L 65.203125 233.035156 L 42.648438 251.726562 C 40.523438 253.488281 39.84375 256.457031 40.992188 258.96875 L 51.902344 282.816406 C 53.050781 285.328125 55.742188 286.761719 58.472656 286.308594 L 87.386719 281.53125 L 98.089844 293.859375 L 89.238281 321.753906 C 88.402344 324.386719 89.4375 327.25 91.761719 328.742188 L 113.855469 342.917969 C 116.179688 344.410156 119.222656 344.160156 121.273438 342.308594 L 143.011719 322.683594 L 158.6875 327.277344 L 166.347656 355.523438 C 167.070312 358.1875 169.492188 360.039062 172.257812 360.039062 L 198.519531 360.039062 C 201.285156 360.039062 203.707031 358.1875 204.429688 355.523438 L 212.089844 327.277344 L 227.707031 322.699219 L 227.765625 322.683594 L 249.503906 342.308594 C 251.554688 344.160156 254.597656 344.410156 256.921875 342.917969 L 279.015625 328.742188 C 281.339844 327.25 282.375 324.386719 281.542969 321.753906 L 272.691406 293.859375 L 283.386719 281.53125 L 312.304688 286.308594 C 315.035156 286.761719 317.726562 285.328125 318.875 282.816406 L 329.785156 258.96875 C 330.933594 256.457031 330.253906 253.488281 328.125 251.726562 L 305.574219 233.035156 L 307.898438 216.890625 L 334.8125 205.300781 C 337.351562 204.207031 338.84375 201.550781 338.449219 198.816406 L 337.289062 190.773438 L 351.378906 190.773438 C 354.757812 190.773438 357.5 188.035156 357.5 184.660156 C 357.5 181.285156 354.757812 178.550781 351.378906 178.550781 Z M 136.027344 190.773438 L 234.75 190.773438 C 236.832031 196.484375 237.882812 202.484375 237.882812 208.664062 C 237.882812 222.664062 232.421875 235.824219 222.507812 245.722656 C 212.59375 255.621094 199.410156 261.074219 185.386719 261.074219 C 171.363281 261.074219 158.183594 255.621094 148.265625 245.722656 C 138.351562 235.824219 132.890625 222.660156 132.890625 208.664062 C 132.890625 202.484375 133.945312 196.484375 136.027344 190.773438 Z M 299.902344 207.019531 C 297.945312 207.863281 296.570312 209.660156 296.265625 211.761719 L 292.964844 234.683594 C 292.660156 236.789062 293.476562 238.898438 295.113281 240.257812 L 316.699219 258.144531 L 309.683594 273.484375 L 282.007812 268.914062 C 279.90625 268.566406 277.773438 269.332031 276.378906 270.941406 L 261.191406 288.441406 C 259.796875 290.046875 259.339844 292.261719 259.980469 294.289062 L 268.453125 320.988281 L 254.242188 330.105469 L 233.4375 311.320312 C 231.855469 309.894531 229.648438 309.390625 227.605469 309.988281 L 205.351562 316.511719 C 203.304688 317.113281 201.722656 318.726562 201.164062 320.78125 L 193.832031 347.8125 L 176.941406 347.8125 L 169.609375 320.78125 C 169.054688 318.726562 167.46875 317.113281 165.425781 316.511719 L 143.171875 309.988281 C 141.128906 309.390625 138.917969 309.894531 137.339844 311.320312 L 116.53125 330.105469 L 102.324219 320.988281 L 110.792969 294.289062 C 111.4375 292.261719 110.980469 290.046875 109.585938 288.441406 L 94.394531 270.941406 C 93 269.332031 90.871094 268.566406 88.769531 268.914062 L 61.09375 273.484375 L 54.078125 258.144531 L 75.664062 240.257812 C 77.300781 238.898438 78.117188 236.789062 77.8125 234.683594 L 74.511719 211.761719 C 74.210938 209.660156 72.832031 207.863281 70.878906 207.019531 L 45.117188 195.929688 L 45.859375 190.773438 L 123.15625 190.773438 C 121.488281 196.550781 120.648438 202.539062 120.648438 208.664062 C 120.648438 217.386719 122.359375 225.851562 125.738281 233.824219 C 129 241.523438 133.667969 248.433594 139.609375 254.367188 C 145.554688 260.304688 152.476562 264.960938 160.1875 268.21875 C 168.171875 271.589844 176.652344 273.300781 185.390625 273.300781 C 194.128906 273.300781 202.605469 271.589844 210.59375 268.21875 C 218.304688 264.964844 225.226562 260.304688 231.171875 254.367188 C 237.113281 248.433594 241.78125 241.523438 245.042969 233.824219 C 248.421875 225.851562 250.132812 217.386719 250.132812 208.664062 C 250.132812 202.539062 249.292969 196.550781 247.625 190.773438 L 324.921875 190.773438 L 325.664062 195.929688 Z M 299.902344 207.019531 "/></g></g></svg>