<svg xmlns="http://www.w3.org/2000/svg" xmlns:xlink="http://www.w3.org/1999/xlink" width="500" zoomAndPan="magnify" viewBox="0 0 375 374.999991" height="500" preserveAspectRatio="xMidYMid meet" version="1.2"><defs><clipPath id="3c6d95b093"><path d="M 11.925781 11.925781 L 362.925781 11.925781 L 362.925781 362.925781 L 11.925781 362.925781 Z M 11.925781 11.925781 "/></clipPath></defs><g id="5b9acdf40f"><g clip-rule="nonzero" clip-path="url(#3c6d95b093)"><path style=" stroke:none;fill-rule:nonzero;fill:#ffffff;fill-opacity:1;" d="M 187.46875 36.371094 C 104.152344 36.371094 36.371094 104.152344 36.371094 187.46875 C 36.371094 270.78125 104.152344 338.5625 187.46875 338.5625 C 270.78125 338.5625 338.5625 270.78125 338.5625 187.46875 C 338.5625 104.152344 270.78125 36.371094 187.46875 36.371094 Z M 187.46875 362.976562 C 90.691406 362.976562 11.957031 284.246094 11.957031 187.46875 C 11.957031 90.691406 90.691406 11.957031 187.46875 11.957031 C 284.246094 11.957031 362.976562 90.691406 362.976562 187.46875 C 362.976562 284.246094 284.246094 362.976562 187.46875 362.976562 "/></g><path style=" stroke:none;fill-rule:nonzero;fill:#ffffff;fill-opacity:1;" d="M 187.46875 209.34375 C 180.726562 209.34375 175.257812 203.875 175.257812 197.132812 L 175.257812 65.289062 C 175.257812 58.546875 180.726562 53.082031 187.46875 53.082031 C 194.207031 53.082031 199.675781 58.546875 199.675781 65.289062 L 199.675781 197.132812 C 199.675781 203.875 194.207031 209.34375 187.46875 209.34375 "/><path style=" stroke:none;fill-rule:nonzero;fill:#ffffff;fill-opacity:1;" d="M 249.203125 272.890625 C 246.078125 272.890625 242.957031 271.703125 240.570312 269.316406 L 178.832031 207.578125 C 174.070312 202.8125 174.070312 195.082031 178.832031 190.316406 C 183.601562 185.546875 191.332031 185.546875 196.101562 190.316406 L 257.832031 252.050781 C 262.601562 256.820312 262.601562 264.546875 257.832031 269.316406 C 255.453125 271.703125 252.324219 272.890625 249.203125 272.890625 "/></g></svg>