<svg xmlns="http://www.w3.org/2000/svg" xmlns:xlink="http://www.w3.org/1999/xlink" width="500" zoomAndPan="magnify" viewBox="0 0 375 374.999991" height="500" preserveAspectRatio="xMidYMid meet" version="1.2"><defs><clipPath id="038df24e69"><path d="M 22 26.289062 L 365 26.289062 L 365 362 L 22 362 Z M 22 26.289062 "/></clipPath></defs><g id="380240e968"><g clip-rule="nonzero" clip-path="url(#038df24e69)"><path style=" stroke:none;fill-rule:nonzero;fill:#100f0d;fill-opacity:1;" d="M 281.890625 145.722656 C 280.769531 144.605469 279.3125 144.042969 277.832031 144.042969 C 276.375 144.042969 274.917969 144.605469 273.796875 145.722656 L 261.628906 157.863281 L 221.058594 117.324219 L 230.988281 107.402344 C 237.578125 100.816406 240.511719 91.746094 239.011719 82.539062 C 237.53125 73.335938 231.882812 65.652344 223.523438 61.488281 L 177.976562 38.730469 L 178.289062 38.417969 L 259.675781 54.675781 C 269.695312 56.691406 278.839844 61.574219 286.058594 68.808594 L 318.425781 101.128906 L 306.230469 113.292969 C 305.15625 114.367188 304.574219 115.824219 304.574219 117.347656 C 304.574219 118.847656 305.15625 120.324219 306.230469 121.398438 L 318.402344 133.5625 C 319.769531 134.90625 321.71875 135.511719 323.601562 135.128906 L 337.859375 132.285156 C 339.765625 131.882812 341.691406 132.488281 343.058594 133.832031 L 350.882812 141.667969 L 302.199219 190.316406 L 294.351562 182.5 C 292.984375 181.132812 292.402344 179.207031 292.785156 177.328125 L 295.652344 163.058594 C 296.011719 161.179688 295.429688 159.230469 294.0625 157.886719 Z M 68.929688 334.199219 C 62.253906 340.898438 51.3125 340.898438 44.589844 334.222656 C 37.886719 327.480469 37.886719 316.550781 44.589844 309.875 L 221.035156 133.539062 L 245.398438 157.886719 Z M 288.324219 259.054688 C 302.421875 257.398438 316.25 262.167969 326.292969 272.136719 C 338.015625 283.871094 342.363281 300.851562 338.148438 316.4375 L 312.84375 291.152344 C 311.769531 290.078125 310.3125 289.472656 308.765625 289.472656 L 284.445312 289.472656 C 281.285156 289.472656 278.707031 292.046875 278.707031 295.207031 L 278.707031 319.507812 C 278.707031 321.03125 279.3125 322.507812 280.386719 323.582031 L 305.695312 348.871094 C 290.09375 353.058594 273.105469 348.734375 261.359375 337.023438 C 251.382812 327.011719 246.609375 313.167969 248.269531 299.101562 C 249.34375 290.144531 246.363281 281.429688 240.132812 275.273438 L 192.144531 227.316406 L 216.507812 202.972656 L 264.472656 250.902344 C 270.660156 257.175781 279.402344 260.128906 288.324219 259.054688 Z M 89.105469 136.203125 C 87.894531 136.203125 86.683594 136.273438 85.472656 136.40625 C 71.351562 138.0625 57.523438 133.292969 47.503906 123.328125 C 35.78125 111.589844 31.433594 94.613281 35.644531 79.023438 L 60.953125 104.3125 C 62.027344 105.386719 63.507812 105.992188 65.03125 105.992188 L 89.351562 105.992188 C 92.511719 105.992188 95.089844 103.414062 95.089844 100.257812 L 95.089844 75.957031 C 95.089844 74.433594 94.484375 72.953125 93.40625 71.878906 L 68.101562 46.59375 C 83.703125 42.382812 100.691406 46.703125 112.414062 58.441406 C 122.410156 68.453125 127.1875 82.292969 125.550781 96.359375 C 124.453125 105.320312 127.410156 114.03125 133.664062 120.191406 L 175.914062 162.410156 L 151.550781 186.757812 L 109.320312 144.558594 C 103.964844 139.140625 96.746094 136.203125 89.105469 136.203125 Z M 286.238281 190.609375 L 298.140625 202.480469 C 299.261719 203.597656 300.71875 204.160156 302.199219 204.160156 C 303.652344 204.160156 305.109375 203.597656 306.230469 202.480469 L 363.050781 145.722656 C 365.292969 143.484375 365.292969 139.855469 363.050781 137.617188 L 351.171875 125.746094 C 347.09375 121.644531 341.289062 119.898438 335.617188 121.019531 L 324.363281 123.28125 L 318.402344 117.347656 L 330.597656 105.183594 C 331.671875 104.109375 332.277344 102.628906 332.277344 101.128906 C 332.277344 99.605469 331.671875 98.152344 330.597656 97.078125 L 294.195312 60.679688 C 285.339844 51.855469 274.179688 45.898438 261.941406 43.433594 L 177.527344 26.570312 C 175.644531 26.1875 173.695312 26.792969 172.351562 28.136719 L 164.238281 36.246094 C 162.9375 37.542969 162.332031 39.402344 162.625 41.214844 C 162.914062 43.054688 164.082031 44.597656 165.714844 45.425781 L 218.390625 71.746094 C 223.386719 74.253906 226.796875 78.867188 227.691406 84.375 C 228.589844 89.910156 226.839844 95.351562 222.875 99.292969 L 208.863281 113.292969 C 207.789062 114.367188 207.183594 115.824219 207.183594 117.347656 C 207.183594 118.847656 207.789062 120.324219 208.863281 121.398438 L 212.921875 125.429688 L 184.027344 154.300781 L 141.753906 112.058594 C 138.035156 108.386719 136.265625 103.167969 136.9375 97.703125 C 139 80.121094 133.015625 62.851562 120.550781 50.332031 C 103.359375 33.152344 77.113281 28.675781 55.257812 39.179688 C 53.578125 39.984375 52.390625 41.550781 52.074219 43.390625 C 51.761719 45.226562 52.367188 47.085938 53.667969 48.40625 L 83.613281 78.308594 L 83.613281 94.523438 L 67.386719 94.523438 L 37.460938 64.601562 C 36.140625 63.300781 34.277344 62.71875 32.441406 63.007812 C 30.601562 63.324219 29.035156 64.511719 28.226562 66.191406 C 17.714844 88.027344 22.199219 114.253906 39.390625 131.433594 C 51.941406 143.886719 69.199219 149.867188 86.839844 147.808594 C 92.265625 147.136719 97.488281 148.902344 101.1875 152.644531 L 143.4375 194.863281 L 36.453125 301.769531 C 25.3125 312.898438 25.289062 331.109375 36.476562 342.328125 C 42.078125 347.90625 49.429688 350.683594 56.78125 350.683594 C 64.136719 350.683594 71.488281 347.882812 77.046875 342.328125 L 184.027344 235.425781 L 232.039062 283.402344 C 235.761719 287.074219 237.53125 292.292969 236.859375 297.757812 C 234.796875 315.339844 240.757812 332.585938 253.246094 345.128906 C 264.226562 356.105469 278.929688 361.90625 293.8125 361.90625 C 302.199219 361.90625 310.671875 360.070312 318.558594 356.285156 C 320.21875 355.476562 321.40625 353.910156 321.71875 352.074219 C 322.035156 350.238281 321.429688 348.378906 320.128906 347.054688 L 290.183594 317.15625 L 290.183594 300.9375 L 306.410156 300.9375 L 336.335938 330.863281 C 337.65625 332.160156 339.539062 332.742188 341.355469 332.453125 C 343.191406 332.140625 344.761719 330.953125 345.570312 329.273438 C 356.082031 307.433594 351.597656 281.207031 334.40625 264.027344 C 321.878906 251.574219 304.59375 245.59375 286.957031 247.65625 C 281.53125 248.328125 276.332031 246.558594 272.609375 242.816406 L 224.621094 194.863281 L 253.511719 165.992188 L 257.546875 170.046875 C 259.789062 172.289062 263.421875 172.289062 265.660156 170.046875 L 277.832031 157.886719 L 283.796875 163.820312 L 281.53125 175.066406 C 280.386719 180.707031 282.160156 186.53125 286.238281 190.609375 "/></g></g></svg>