<svg xmlns="http://www.w3.org/2000/svg" xmlns:xlink="http://www.w3.org/1999/xlink" width="500" zoomAndPan="magnify" viewBox="0 0 375 374.999991" height="500" preserveAspectRatio="xMidYMid meet" version="1.2"><defs><clipPath id="25b73a71c7"><path d="M 25.683594 25.683594 L 349.683594 25.683594 L 349.683594 349.683594 L 25.683594 349.683594 Z M 25.683594 25.683594 "/></clipPath></defs><g id="03c93fe27c"><path style=" stroke:none;fill-rule:nonzero;fill:#000000;fill-opacity:1;" d="M 181.105469 290.335938 C 175.589844 290.335938 170.773438 288.550781 166.664062 284.980469 C 162.546875 281.410156 160.492188 276.414062 160.492188 269.992188 C 160.492188 264.300781 162.480469 259.507812 166.460938 255.621094 C 170.4375 251.734375 175.320312 249.789062 181.105469 249.789062 C 186.800781 249.789062 191.589844 251.734375 195.476562 255.621094 C 199.363281 259.507812 201.308594 264.300781 201.308594 269.992188 C 201.308594 276.324219 199.273438 281.296875 195.207031 284.910156 C 191.140625 288.527344 186.4375 290.335938 181.105469 290.335938 Z M 114.929688 141.714844 C 114.929688 133.128906 117.6875 124.425781 123.203125 115.609375 C 128.714844 106.796875 136.761719 99.5 147.339844 93.710938 C 157.917969 87.925781 170.257812 85.03125 184.359375 85.03125 C 197.464844 85.03125 209.039062 87.453125 219.074219 92.289062 C 229.109375 97.125 236.859375 103.703125 242.332031 112.015625 C 247.796875 120.335938 250.53125 129.375 250.53125 139.136719 C 250.53125 146.824219 248.976562 153.558594 245.855469 159.34375 C 242.734375 165.128906 239.027344 170.125 234.738281 174.328125 C 230.441406 178.53125 222.734375 185.605469 211.613281 195.550781 C 208.542969 198.351562 206.078125 200.816406 204.226562 202.9375 C 202.371094 205.0625 200.992188 207.007812 200.089844 208.769531 C 199.183594 210.53125 198.484375 212.296875 197.988281 214.058594 C 197.488281 215.820312 196.742188 218.917969 195.75 223.347656 C 194.03125 232.75 188.652344 237.449219 179.613281 237.449219 C 174.910156 237.449219 170.957031 235.914062 167.75 232.839844 C 164.539062 229.765625 162.933594 225.203125 162.933594 219.144531 C 162.933594 211.550781 164.105469 204.972656 166.460938 199.414062 C 168.808594 193.855469 171.929688 188.972656 175.816406 184.769531 C 179.699219 180.566406 184.945312 175.570312 191.546875 169.785156 C 197.328125 164.722656 201.511719 160.902344 204.089844 158.324219 C 206.664062 155.75 208.835938 152.878906 210.597656 149.714844 C 212.359375 146.550781 213.242188 143.117188 213.242188 139.410156 C 213.242188 132.179688 210.550781 126.078125 205.175781 121.101562 C 199.792969 116.132812 192.855469 113.644531 184.359375 113.644531 C 174.414062 113.644531 167.089844 116.152344 162.390625 121.171875 C 157.691406 126.1875 153.710938 133.578125 150.457031 143.34375 C 147.382812 153.558594 141.554688 158.664062 132.964844 158.664062 C 127.902344 158.664062 123.628906 156.878906 120.152344 153.308594 C 116.667969 149.738281 114.929688 145.875 114.929688 141.714844 "/><g clip-rule="nonzero" clip-path="url(#25b73a71c7)"><path style=" stroke:none;fill-rule:nonzero;fill:#000000;fill-opacity:1;" d="M 187.683594 334.417969 C 162.453125 334.417969 137.566406 327.902344 115.71875 315.578125 L 110.273438 312.507812 L 104.238281 314.132812 L 65.605469 324.5625 L 52.429688 328.09375 L 55.960938 314.914062 L 65.703125 278.550781 L 67.441406 272.066406 L 63.832031 266.398438 C 48.863281 242.898438 40.949219 215.679688 40.949219 187.683594 C 40.949219 106.777344 106.777344 40.949219 187.683594 40.949219 C 268.59375 40.949219 334.417969 106.777344 334.417969 187.683594 C 334.417969 268.59375 268.59375 334.417969 187.683594 334.417969 Z M 187.683594 25.683594 C 98.214844 25.683594 25.683594 98.214844 25.683594 187.683594 C 25.683594 219.667969 34.957031 249.488281 50.957031 274.601562 L 41.214844 310.964844 L 30.839844 349.683594 L 69.558594 339.308594 L 108.214844 328.875 C 131.695312 342.117188 158.804688 349.683594 187.683594 349.683594 C 277.152344 349.683594 349.683594 277.152344 349.683594 187.683594 C 349.683594 98.214844 277.152344 25.683594 187.683594 25.683594 "/></g></g></svg>