<svg xmlns="http://www.w3.org/2000/svg" xmlns:xlink="http://www.w3.org/1999/xlink" width="500" zoomAndPan="magnify" viewBox="0 0 375 374.999991" height="500" preserveAspectRatio="xMidYMid meet" version="1.2"><g id="8e9713e0b7"><path style=" stroke:none;fill-rule:nonzero;fill:#000000;fill-opacity:1;" d="M 189.175781 83.300781 C 129.949219 83.300781 81.769531 131.480469 81.769531 190.707031 C 81.769531 249.9375 129.949219 298.113281 189.175781 298.113281 C 248.402344 298.113281 296.582031 249.9375 296.582031 190.707031 C 296.582031 131.480469 248.402344 83.300781 189.175781 83.300781 Z M 189.175781 282.769531 C 138.410156 282.769531 97.113281 241.472656 97.113281 190.707031 C 97.113281 139.945312 138.410156 98.644531 189.175781 98.644531 C 239.9375 98.644531 281.238281 139.945312 281.238281 190.707031 C 281.238281 241.472656 239.9375 282.769531 189.175781 282.769531 Z M 189.175781 282.769531 "/><path style=" stroke:none;fill-rule:nonzero;fill:#000000;fill-opacity:1;" d="M 229.78125 154.597656 L 173.832031 210.546875 L 148.558594 185.285156 C 145.558594 182.285156 140.710938 182.285156 137.710938 185.285156 C 134.710938 188.285156 134.710938 193.140625 137.710938 196.132812 L 168.40625 226.820312 C 169.910156 228.316406 171.875 229.066406 173.832031 229.066406 C 175.789062 229.066406 177.757812 228.316406 179.253906 226.820312 L 240.628906 165.445312 C 243.628906 162.445312 243.628906 157.597656 240.628906 154.597656 C 237.628906 151.597656 232.78125 151.597656 229.78125 154.597656 Z M 229.78125 154.597656 "/><path style=" stroke:none;fill-rule:nonzero;fill:#000000;fill-opacity:1;" d="M 341.613281 165.753906 C 338.453125 163.414062 337.472656 158.785156 339.566406 155.457031 C 347.0625 143.535156 357.949219 118.492188 320.464844 109.308594 C 316.644531 108.375 313.8125 104.421875 314.625 100.585938 C 318.222656 83.753906 313.183594 59.3125 279.304688 65.265625 C 275.445312 65.941406 271.339844 63.285156 270.582031 59.429688 C 268.042969 46.523438 257.101562 20.386719 224.441406 40.316406 C 221.082031 42.367188 215.726562 41.253906 214.148438 38.261719 C 209.074219 28.679688 186.867188 6.582031 164.203125 38.261719 C 161.917969 41.460938 156.660156 42.28125 153.90625 40.308594 C 139.039062 29.660156 115.019531 27 107.761719 59.414062 C 106.925781 63.132812 102.964844 65.988281 99.03125 65.242188 C 86.035156 62.773438 57.511719 63.585938 63.730469 100.5625 C 64.382812 104.4375 61.78125 108.710938 57.902344 109.296875 C 42.765625 111.558594 19.425781 123.71875 38.78125 155.433594 C 40.832031 158.785156 40.242188 163.957031 36.734375 165.730469 C 23.300781 172.519531 7.917969 196.671875 36.734375 215.695312 C 40.011719 217.859375 40.832031 222.515625 38.78125 225.871094 C 19.425781 257.585938 42.765625 269.738281 57.902344 272.007812 C 61.789062 272.589844 64.382812 276.863281 63.730469 280.738281 C 57.511719 317.71875 86.035156 318.53125 99.046875 316.050781 C 102.980469 315.300781 106.941406 318.160156 107.777344 321.882812 C 115.035156 354.304688 139.054688 351.632812 153.921875 340.984375 C 156.675781 339.015625 161.933594 339.835938 164.21875 343.035156 C 186.878906 374.71875 209.089844 352.625 214.160156 343.035156 C 215.742188 340.050781 221.097656 338.929688 224.457031 340.976562 C 257.117188 360.910156 268.058594 334.769531 270.597656 321.867188 C 271.355469 318.007812 275.460938 315.355469 279.320312 316.027344 C 313.199219 321.980469 318.230469 297.539062 314.640625 280.707031 C 313.820312 276.871094 316.65625 272.921875 320.480469 271.984375 C 357.972656 262.800781 347.085938 237.761719 339.582031 225.839844 C 337.488281 222.507812 338.394531 217.78125 341.613281 215.558594 C 351.632812 208.628906 373.300781 189.199219 341.613281 165.753906 Z M 330.660156 242.195312 C 333.269531 246.390625 331.65625 252.160156 325.71875 254.117188 C 314.839844 257.707031 294.792969 260.660156 300.140625 292.414062 C 301.160156 298.453125 297.929688 302.066406 291.011719 301.535156 C 280.484375 300.730469 258.8125 296.472656 252.726562 327.121094 C 251.523438 333.175781 245.59375 334.488281 240.804688 332.070312 C 220.152344 321.644531 211.890625 320.308594 195.640625 341.054688 C 192.535156 345.019531 186.058594 344.851562 182.730469 341.054688 C 174 331.105469 164.109375 315.804688 137.558594 332.078125 C 132.941406 334.910156 127.675781 332.722656 125.636719 327.136719 C 120.335938 312.59375 118.769531 297.085938 87.347656 301.558594 C 82.496094 302.25 77.355469 298.964844 78.222656 292.4375 C 79.875 279.949219 81.769531 259.894531 52.628906 254.140625 C 48.136719 253.25 44.621094 247.25 47.691406 242.21875 C 59.328125 223.183594 57.71875 211.277344 38.539062 196.96875 C 36.375 195.359375 32.851562 188.429688 38.707031 184.242188 C 57.386719 170.878906 59.328125 158.117188 47.691406 139.078125 C 44.613281 134.042969 48.136719 128.039062 52.628906 127.15625 C 81.769531 121.402344 79.875 101.347656 78.222656 88.855469 C 77.355469 82.328125 82.503906 79.042969 87.347656 79.734375 C 118.769531 84.199219 120.335938 68.703125 125.636719 54.15625 C 127.667969 48.566406 132.941406 46.386719 137.558594 49.214844 C 164.117188 65.488281 174.007812 50.191406 182.730469 40.242188 C 186.058594 36.441406 192.527344 36.273438 195.640625 40.242188 C 211.890625 60.984375 220.152344 59.648438 240.804688 49.222656 C 245.59375 46.808594 251.523438 48.121094 252.726562 54.171875 C 258.8125 84.820312 280.484375 80.5625 291.011719 79.757812 C 297.9375 79.230469 301.160156 82.84375 300.140625 88.878906 C 294.792969 120.640625 314.839844 123.585938 325.71875 127.179688 C 331.65625 129.132812 333.269531 134.910156 330.660156 139.101562 C 313.597656 166.503906 331.625 177.398438 339.644531 184.273438 C 342.773438 186.957031 344.574219 193.300781 340.363281 196.585938 C 330.78125 203.214844 313.597656 214.789062 330.660156 242.195312 Z M 330.660156 242.195312 "/></g></svg>