<svg xmlns="http://www.w3.org/2000/svg" xmlns:xlink="http://www.w3.org/1999/xlink" width="500" zoomAndPan="magnify" viewBox="0 0 375 374.999991" height="500" preserveAspectRatio="xMidYMid meet" version="1.2"><defs><clipPath id="d24f2087a9"><path d="M 29.246094 29.246094 L 345 29.246094 L 345 344 L 29.246094 344 Z M 29.246094 29.246094 "/></clipPath></defs><g id="acb127e4a5"><g clip-rule="nonzero" clip-path="url(#d24f2087a9)"><path style=" stroke:none;fill-rule:nonzero;fill:#000000;fill-opacity:1;" d="M 177.566406 29.589844 C 174.257812 29.5625 171.398438 31.9375 170.8125 35.195312 L 167.074219 55.648438 C 163.871094 56.691406 160.773438 57.945312 157.726562 59.441406 L 140.933594 47.320312 C 138.234375 45.367188 134.496094 45.636719 132.148438 48.011719 L 117.539062 62.378906 C 115.191406 64.726562 114.84375 68.414062 116.738281 71.136719 L 128.542969 88.226562 C 126.992188 91.242188 125.683594 94.339844 124.644531 97.519531 L 104.164062 100.832031 C 100.878906 101.335938 98.449219 104.167969 98.421875 107.53125 L 98.289062 128.039062 C 98.261719 131.351562 100.636719 134.207031 103.894531 134.796875 L 124.429688 138.535156 C 125.445312 141.710938 126.726562 144.78125 128.222656 147.800781 L 116.019531 164.675781 C 114.070312 167.375 114.335938 171.113281 116.6875 173.488281 L 131.105469 188.066406 C 133.429688 190.417969 137.113281 190.765625 139.835938 188.867188 L 157.140625 176.960938 C 160.132812 178.480469 163.203125 179.738281 166.351562 180.777344 L 169.878906 201.5 C 170.4375 204.785156 173.242188 207.1875 176.582031 207.214844 L 197.0625 207.320312 C 200.425781 207.347656 203.28125 204.917969 203.84375 201.632812 L 207.339844 180.9375 C 210.464844 179.921875 213.511719 178.695312 216.472656 177.199219 L 233.644531 189.402344 C 236.367188 191.324219 240.050781 191.003906 242.402344 188.683594 L 257.007812 174.289062 C 259.386719 171.9375 259.707031 168.199219 257.757812 165.449219 L 245.578125 148.359375 C 247.101562 145.398438 248.382812 142.378906 249.425781 139.28125 L 270.226562 135.757812 C 273.484375 135.195312 275.886719 132.367188 275.914062 129.027344 L 276.019531 108.546875 C 276.046875 105.210938 273.644531 102.351562 270.332031 101.792969 L 249.71875 98.292969 C 248.703125 95.144531 247.449219 92.070312 245.980469 89.054688 L 258.101562 71.9375 C 260.050781 69.242188 259.757812 65.554688 257.410156 63.179688 L 242.988281 48.601562 C 240.640625 46.25 236.902344 45.902344 234.175781 47.851562 L 217.25 59.867188 C 214.257812 58.347656 211.214844 57.066406 208.089844 56.023438 L 204.777344 35.460938 C 204.242188 32.152344 201.414062 29.722656 198.050781 29.695312 Z M 183.230469 43.285156 L 192.203125 43.339844 L 195.164062 61.816406 C 195.59375 64.515625 197.59375 66.679688 200.210938 67.34375 C 205.230469 68.628906 210.066406 70.683594 214.605469 73.433594 C 216.929688 74.875 219.890625 74.769531 222.109375 73.191406 L 237.355469 62.378906 L 243.65625 68.734375 L 232.683594 84.113281 C 231.132812 86.332031 231 89.242188 232.386719 91.566406 C 235.085938 96.128906 237.0625 100.992188 238.238281 105.984375 C 238.878906 108.652344 241.039062 110.683594 243.765625 111.164062 L 262.320312 114.289062 L 262.269531 123.234375 L 243.523438 126.382812 C 240.851562 126.839844 238.691406 128.839844 238.023438 131.457031 C 236.769531 136.425781 234.765625 141.230469 232.015625 145.71875 C 230.597656 148.066406 230.707031 151.03125 232.308594 153.246094 L 243.230469 168.65625 L 236.902344 174.929688 L 221.386719 163.929688 C 219.171875 162.351562 216.261719 162.246094 213.9375 163.632812 C 209.398438 166.332031 204.589844 168.253906 199.597656 169.484375 C 196.925781 170.125 194.925781 172.285156 194.472656 174.984375 L 191.320312 193.621094 L 182.402344 193.542969 L 179.25 174.851562 C 178.796875 172.179688 176.792969 170.015625 174.125 169.375 C 169.183594 168.148438 164.324219 166.117188 159.785156 163.394531 C 157.488281 162.007812 154.578125 162.085938 152.359375 163.632812 L 136.792969 174.371094 L 130.492188 167.988281 L 141.464844 152.820312 C 143.070312 150.605469 143.203125 147.640625 141.785156 145.289062 C 139.089844 140.722656 137.113281 135.863281 135.886719 130.84375 C 135.246094 128.226562 133.136719 126.222656 130.464844 125.71875 L 111.988281 122.378906 L 112.066406 113.40625 L 130.464844 110.441406 C 133.160156 110.015625 135.351562 108.011719 136.019531 105.371094 C 137.300781 100.324219 139.304688 95.464844 142.082031 90.921875 C 143.496094 88.628906 143.414062 85.691406 141.867188 83.472656 L 131.265625 68.09375 L 137.621094 61.792969 L 152.734375 72.6875 C 154.925781 74.289062 157.863281 74.421875 160.210938 73.058594 C 164.804688 70.308594 169.691406 68.359375 174.738281 67.132812 C 177.382812 66.515625 179.382812 64.382812 179.863281 61.738281 Z M 187.074219 84.515625 C 178.289062 84.460938 169.476562 87.746094 162.773438 94.394531 C 149.371094 107.640625 149.261719 129.457031 162.507812 142.886719 C 175.753906 156.292969 197.59375 156.398438 211 143.152344 C 224.40625 129.910156 224.511719 108.066406 211.265625 94.660156 C 204.644531 87.960938 195.859375 84.570312 187.074219 84.515625 Z M 187.019531 98.105469 C 192.28125 98.132812 197.515625 100.191406 201.546875 104.273438 C 209.609375 112.417969 209.53125 125.371094 201.386719 133.40625 C 193.242188 141.472656 180.292969 141.417969 172.226562 133.273438 C 164.164062 125.101562 164.242188 112.152344 172.386719 104.113281 C 176.472656 100.082031 181.734375 98.078125 187.019531 98.105469 Z M 114.84375 207.320312 C 97.007812 207.320312 88.78125 211.59375 79.917969 215.011719 C 79.917969 215.039062 79.917969 215.039062 79.917969 215.039062 C 62.90625 221.660156 33.800781 235.382812 33.800781 235.382812 C 30.382812 236.988281 28.914062 241.070312 30.515625 244.488281 C 32.144531 247.90625 36.230469 249.375 39.648438 247.773438 C 39.648438 247.773438 68.941406 233.96875 84.855469 227.773438 C 94.683594 223.957031 98.957031 220.992188 114.84375 220.992188 C 149.90625 220.992188 148.488281 236.210938 163.28125 244.917969 C 163.496094 245.050781 163.734375 245.183594 163.976562 245.265625 C 182.320312 253.488281 202.027344 255.171875 217.914062 255.171875 C 224.9375 255.171875 229.371094 256.800781 231.773438 258.617188 C 234.152344 260.457031 235.003906 262.355469 235.003906 265.425781 C 235.003906 269.03125 234.097656 270.738281 231.722656 272.472656 C 229.371094 274.183594 224.832031 275.679688 217.914062 275.679688 L 182.027344 275.679688 C 166.96875 275.679688 141.039062 269.054688 141.039062 269.054688 C 138.6875 268.414062 136.152344 269.109375 134.417969 270.84375 C 132.679688 272.582031 132.011719 275.117188 132.65625 277.46875 C 133.320312 279.84375 135.191406 281.6875 137.566406 282.300781 C 137.566406 282.300781 163.28125 289.351562 182.027344 289.351562 L 217.914062 289.351562 C 224.886719 289.351562 230.945312 288.203125 236.019531 285.691406 C 236.6875 285.503906 237.328125 285.210938 237.890625 284.8125 L 302.722656 242.273438 C 312.46875 236.640625 319.117188 235.0625 323.015625 235.117188 C 326.914062 235.199219 328.25 236.371094 329.425781 237.867188 C 331.160156 240.109375 331.269531 240.964844 330.148438 243.554688 C 329 246.171875 325.660156 250.203125 319.652344 254.371094 C 319.652344 254.371094 319.652344 254.371094 319.625 254.371094 C 312.203125 259.550781 229.183594 313.648438 219.597656 319.097656 C 212.363281 323.210938 206.621094 327.535156 200.078125 329.378906 C 193.535156 331.191406 185.820312 331.191406 173.054688 325.105469 C 164.539062 321.019531 128.273438 302.433594 116.527344 296.480469 C 109.984375 293.167969 104.402344 291.300781 98.714844 291.621094 C 93 291.941406 88.167969 294.371094 83.175781 297.519531 C 83.148438 297.519531 83.121094 297.546875 83.121094 297.574219 L 66.191406 308.390625 C 64.054688 309.671875 62.800781 312.019531 62.878906 314.503906 C 62.960938 316.988281 64.402344 319.230469 66.617188 320.351562 C 68.863281 321.472656 71.503906 321.3125 73.5625 319.898438 L 90.410156 309.109375 C 94.761719 306.386719 97.21875 305.398438 99.464844 305.265625 C 101.707031 305.132812 104.777344 305.851562 110.359375 308.683594 C 122 314.585938 157.703125 332.902344 167.179688 337.414062 C 182.054688 344.542969 194.097656 345.210938 203.738281 342.542969 C 213.375 339.84375 220.238281 334.449219 226.355469 330.980469 C 239.542969 323.476562 317.917969 272.207031 327.449219 265.585938 C 334.6875 260.539062 340 255.277344 342.695312 248.976562 C 345.394531 242.675781 344.511719 234.984375 340.214844 229.484375 C 340.214844 229.484375 340.214844 229.484375 340.214844 229.457031 C 336.820312 225.128906 330.8125 221.605469 323.257812 221.445312 C 318.957031 221.367188 314.179688 222.355469 308.863281 224.304688 C 307.875 222.996094 306.382812 221.285156 304.324219 219.789062 C 300.347656 216.828125 294.019531 214.15625 285.417969 214.15625 C 281.015625 214.15625 277.410156 215.171875 274.523438 216.371094 C 270.414062 212.445312 263.125 207.453125 252.523438 207.453125 C 243.925781 207.453125 235.859375 210.335938 230.253906 213.648438 C 229.210938 214.261719 226.699219 215.839844 222.429688 218.507812 C 218.15625 221.179688 212.574219 224.625 207.074219 228.066406 C 198.289062 233.542969 192.84375 236.960938 189.691406 238.9375 C 182.988281 237.601562 176.285156 235.703125 169.957031 232.929688 C 164.5625 229.457031 154.175781 207.320312 114.84375 207.320312 Z M 252.523438 221.125 C 256.847656 221.125 259.945312 222.21875 262.136719 223.5 L 230.519531 243.101562 C 226.753906 242.035156 222.535156 241.5 217.914062 241.5 C 215.941406 241.5 213.777344 241.367188 211.722656 241.285156 C 213.003906 240.484375 213.003906 240.484375 214.3125 239.683594 C 219.8125 236.238281 225.367188 232.769531 229.664062 230.097656 C 233.9375 227.453125 237.433594 225.289062 237.195312 225.425781 C 240.425781 223.5 247.449219 221.125 252.523438 221.125 Z M 285.417969 227.828125 C 290.972656 227.828125 293.964844 229.242188 295.78125 230.496094 C 295.671875 230.550781 295.59375 230.605469 295.488281 230.683594 L 248.25 261.660156 C 247.609375 257.839844 246.035156 254.183594 243.523438 251.140625 L 276.554688 230.65625 L 276.582031 230.605469 C 276.847656 230.472656 282.5625 227.828125 285.417969 227.828125 Z M 285.417969 227.828125 "/></g></g></svg>