<svg xmlns="http://www.w3.org/2000/svg" xmlns:xlink="http://www.w3.org/1999/xlink" width="500" zoomAndPan="magnify" viewBox="0 0 375 374.999991" height="500" preserveAspectRatio="xMidYMid meet" version="1.2"><defs><clipPath id="13042001b3"><path d="M 37.5 212 L 349.5 212 L 349.5 343.632812 L 37.5 343.632812 Z M 37.5 212 "/></clipPath><clipPath id="f169b9bcaa"><path d="M 111 31.632812 L 276 31.632812 L 276 295 L 111 295 Z M 111 31.632812 "/></clipPath></defs><g id="79dfaaf6db"><g clip-rule="nonzero" clip-path="url(#13042001b3)"><path style=" stroke:none;fill-rule:nonzero;fill:#ffffff;fill-opacity:1;" d="M 37.5 343.363281 L 349.230469 343.363281 L 283.601562 212.105469 L 253.957031 212.105469 C 251.066406 217.554688 248.195312 223.035156 245.375 228.515625 L 273.464844 228.515625 L 322.683594 326.957031 L 64.046875 326.957031 L 113.265625 228.515625 L 141.355469 228.515625 C 138.5 223.035156 135.613281 217.554688 132.742188 212.105469 L 103.128906 212.105469 Z M 37.5 343.363281 "/></g><g clip-rule="nonzero" clip-path="url(#f169b9bcaa)"><path style=" stroke:none;fill-rule:nonzero;fill:#ffffff;fill-opacity:1;" d="M 201.570312 294.140625 C 210.984375 247.167969 249.050781 193.074219 266.308594 149.613281 C 272.101562 138.539062 275.398438 125.972656 275.398438 112.648438 C 275.398438 67.875 238.648438 31.632812 193.347656 31.632812 C 148.050781 31.632812 111.332031 67.875 111.332031 112.648438 C 111.332031 125.988281 114.597656 138.539062 120.386719 149.628906 C 137.648438 193.074219 175.761719 247.167969 185.160156 294.140625 C 187.230469 294.140625 199.535156 294.140625 201.570312 294.140625 Z M 193.347656 72.648438 C 216.007812 72.648438 234.382812 91.039062 234.382812 113.664062 C 234.382812 136.324219 216.007812 154.683594 193.347656 154.683594 C 170.691406 154.683594 152.347656 136.324219 152.347656 113.664062 C 152.347656 91.039062 170.691406 72.648438 193.347656 72.648438 Z M 193.347656 72.648438 "/></g></g></svg>