<svg xmlns="http://www.w3.org/2000/svg" xmlns:xlink="http://www.w3.org/1999/xlink" width="500" zoomAndPan="magnify" viewBox="0 0 375 374.999991" height="500" preserveAspectRatio="xMidYMid meet" version="1.2"><defs><clipPath id="715dd95268"><path d="M 51.941406 21.171875 L 322.691406 21.171875 L 322.691406 337.671875 L 51.941406 337.671875 Z M 51.941406 21.171875 "/></clipPath></defs><g id="81aeac7397"><g clip-rule="nonzero" clip-path="url(#715dd95268)"><path style=" stroke:none;fill-rule:nonzero;fill:#000000;fill-opacity:1;" d="M 187.316406 337.65625 C 185.660156 337.65625 184.019531 337.300781 182.488281 336.578125 C 103.191406 299.015625 51.941406 217.953125 51.941406 130.058594 L 51.941406 66.394531 C 51.941406 61.292969 55.34375 56.828125 60.257812 55.488281 L 184.351562 21.582031 C 186.289062 21.050781 188.339844 21.050781 190.277344 21.582031 L 314.371094 55.488281 C 319.285156 56.832031 322.691406 61.296875 322.691406 66.394531 L 322.691406 130.058594 C 322.691406 217.953125 271.4375 299.015625 192.140625 336.578125 C 190.609375 337.300781 188.96875 337.65625 187.316406 337.65625 Z M 74.503906 75.027344 L 74.503906 130.058594 C 74.503906 207.460938 118.601562 278.980469 187.316406 313.777344 C 256.027344 278.980469 300.128906 207.460938 300.128906 130.058594 L 300.128906 75.027344 L 187.316406 44.203125 Z M 74.503906 75.027344 "/></g><path style=" stroke:none;fill-rule:nonzero;fill:#000000;fill-opacity:1;" d="M 164.753906 224.632812 C 161.867188 224.632812 158.980469 223.527344 156.777344 221.320312 L 111.652344 176.109375 C 107.246094 171.695312 107.246094 164.542969 111.652344 160.125 C 116.058594 155.710938 123.195312 155.710938 127.605469 160.125 L 164.753906 197.34375 L 247.027344 114.914062 C 251.433594 110.5 258.574219 110.5 262.980469 114.914062 C 267.386719 119.328125 267.386719 126.480469 262.980469 130.898438 L 172.730469 221.320312 C 170.527344 223.527344 167.640625 224.632812 164.753906 224.632812 Z M 164.753906 224.632812 "/></g></svg>