<svg xmlns="http://www.w3.org/2000/svg" xmlns:xlink="http://www.w3.org/1999/xlink" width="500" zoomAndPan="magnify" viewBox="0 0 375 374.999991" height="500" preserveAspectRatio="xMidYMid meet" version="1.2"><defs><clipPath id="e787439912"><path d="M 63.097656 11.664062 L 312 11.664062 L 312 363.414062 L 63.097656 363.414062 Z M 63.097656 11.664062 "/></clipPath></defs><g id="36bca546cb"><g clip-rule="nonzero" clip-path="url(#e787439912)"><path style=" stroke:none;fill-rule:nonzero;fill:#ffffff;fill-opacity:1;" d="M 187.496094 11.957031 C 118.902344 11.957031 63.097656 67.761719 63.097656 136.359375 C 63.097656 203.0625 177.941406 350.945312 182.824219 357.210938 L 187.496094 363.191406 L 192.167969 357.210938 C 197.054688 350.945312 311.898438 203.0625 311.898438 136.359375 C 311.898438 67.761719 256.089844 11.957031 187.496094 11.957031 Z M 187.496094 83.042969 C 216.894531 83.042969 240.8125 106.960938 240.8125 136.359375 C 240.8125 165.753906 216.894531 189.671875 187.496094 189.671875 C 158.101562 189.671875 134.183594 165.753906 134.183594 136.359375 C 134.183594 106.960938 158.101562 83.042969 187.496094 83.042969 Z M 187.496094 83.042969 "/></g></g></svg>