<svg xmlns="http://www.w3.org/2000/svg" xmlns:xlink="http://www.w3.org/1999/xlink" width="500" zoomAndPan="magnify" viewBox="0 0 375 374.999991" height="500" preserveAspectRatio="xMidYMid meet" version="1.2"><defs><clipPath id="0b654c028e"><path d="M 18 18.34375 L 365 18.34375 L 365 361 L 18 361 Z M 18 18.34375 "/></clipPath></defs><g id="3ed0633e42"><g clip-rule="nonzero" clip-path="url(#0b654c028e)"><path style=" stroke:none;fill-rule:nonzero;fill:#ffffff;fill-opacity:1;" d="M 55.726562 22.171875 C 55.726562 22.171875 -0.0625 84.5 24.734375 138.242188 C 47.867188 188.371094 117.777344 304.71875 235.148438 352.328125 C 252.277344 359.292969 271.074219 362.027344 289.273438 358.714844 C 302.902344 356.238281 340.535156 348.035156 352.902344 333.277344 C 354.207031 331.71875 356.640625 329.902344 359.097656 326.144531 C 361.253906 322.832031 365.230469 318.476562 363.734375 311.042969 C 361.726562 301.046875 319.453125 262.042969 303.113281 247.28125 C 298.308594 242.945312 292.136719 240.320312 285.683594 240.320312 C 281.476562 240.320312 277.652344 241.28125 276.09375 244.058594 C 264.6875 264.328125 252.664062 277.742188 242.476562 283.082031 C 229.125 290.085938 146.035156 232.351562 112.5 164.640625 C 107.3125 154.175781 109.53125 141.550781 117.96875 133.480469 C 128.5 123.417969 145.5 106.394531 145.992188 102.933594 C 146.824219 97.144531 144.605469 93.558594 141.316406 86.125 C 138.710938 80.273438 100.753906 43.0625 84.710938 27.511719 C 78.902344 21.875 71.105469 18.542969 63.011719 18.820312 C 60.339844 18.925781 56.796875 20.890625 55.726562 22.171875 Z M 55.726562 22.171875 "/></g></g></svg>